<mxfile host="app.diagrams.net" modified="2023-11-07T20:55:18.438Z" agent="Mozilla/5.0 (Windows NT 10.0; Win64; x64) AppleWebKit/537.36 (KHTML, like Gecko) Chrome/119.0.0.0 Safari/537.36" etag="4b2SSnPxr0WWdp3PhP-t" version="22.0.8" type="github">
  <diagram name="Página-1" id="OUPWfr_VSjeyTIxfHJKg">
    <mxGraphModel dx="1867" dy="743" grid="1" gridSize="10" guides="1" tooltips="1" connect="1" arrows="1" fold="1" page="1" pageScale="1" pageWidth="827" pageHeight="1169" math="0" shadow="0">
      <root>
        <mxCell id="0" />
        <mxCell id="1" parent="0" />
        <mxCell id="QaZdnvuTD9Rjo6igAOZW-83" value="PARTICIPA" style="html=1;overflow=block;blockSpacing=1;whiteSpace=wrap;rhombus;fontSize=16.7;fontColor=#3a414a;spacing=3.8;strokeColor=#3a414a;strokeOpacity=100;rounded=1;absoluteArcSize=1;arcSize=9;strokeWidth=0.8;lucidId=OFRA~1sxzak9;" vertex="1" parent="1">
          <mxGeometry x="471" y="417" width="120" height="90" as="geometry" />
        </mxCell>
        <mxCell id="QaZdnvuTD9Rjo6igAOZW-84" value="FUNCIONARIO" style="html=1;overflow=block;blockSpacing=1;whiteSpace=wrap;fontSize=16.7;fontColor=#3a414a;spacing=3.8;strokeColor=#3a414a;strokeOpacity=100;rounded=1;absoluteArcSize=1;arcSize=9;strokeWidth=0.8;lucidId=OFRA.5O0jTu2;" vertex="1" parent="1">
          <mxGeometry x="280" y="430" width="120" height="63" as="geometry" />
        </mxCell>
        <mxCell id="QaZdnvuTD9Rjo6igAOZW-85" value="" style="html=1;jettySize=18;whiteSpace=wrap;fontSize=13;strokeColor=#3a414a;strokeOpacity=100;strokeWidth=0.8;rounded=1;arcSize=12;edgeStyle=orthogonalEdgeStyle;startArrow=none;endArrow=none;exitX=1.003;exitY=0.5;exitPerimeter=0;entryX=0.016;entryY=0.5;entryPerimeter=0;lucidId=OFRA2tyju7wJ;" edge="1" parent="1" source="QaZdnvuTD9Rjo6igAOZW-84" target="QaZdnvuTD9Rjo6igAOZW-83">
          <mxGeometry width="100" height="100" relative="1" as="geometry">
            <Array as="points" />
          </mxGeometry>
        </mxCell>
        <mxCell id="QaZdnvuTD9Rjo6igAOZW-86" value="TRIPULAÇÃO" style="html=1;overflow=block;blockSpacing=1;whiteSpace=wrap;fontSize=16.7;fontColor=#3a414a;spacing=9;strokeColor=#3a414a;strokeOpacity=100;fillOpacity=100;rounded=1;absoluteArcSize=1;arcSize=9;fillColor=#f2f3f5;strokeWidth=0.8;lucidId=5wUKnwlwzIkO;" vertex="1" parent="1">
          <mxGeometry x="655" y="423" width="133" height="77" as="geometry" />
        </mxCell>
        <mxCell id="QaZdnvuTD9Rjo6igAOZW-87" value=" 1,N" style="html=1;overflow=block;blockSpacing=1;whiteSpace=wrap;fontSize=16.7;fontColor=#3a414a;spacing=3.8;strokeOpacity=0;fillOpacity=0;rounded=1;absoluteArcSize=1;arcSize=9;fillColor=#ffffff;strokeWidth=0.8;lucidId=YCUK2FKrBslO;" vertex="1" parent="1">
          <mxGeometry x="364" y="430" width="105" height="45" as="geometry" />
        </mxCell>
        <mxCell id="QaZdnvuTD9Rjo6igAOZW-88" value="" style="html=1;jettySize=18;whiteSpace=wrap;fontSize=13;strokeColor=#3a414a;strokeOpacity=100;strokeWidth=0.8;rounded=1;arcSize=12;edgeStyle=orthogonalEdgeStyle;startArrow=none;endArrow=none;exitX=0.984;exitY=0.5;exitPerimeter=0;entryX=-0.003;entryY=0.5;entryPerimeter=0;lucidId=WPUKq~mZ.hip;" edge="1" parent="1" source="QaZdnvuTD9Rjo6igAOZW-83" target="QaZdnvuTD9Rjo6igAOZW-86">
          <mxGeometry width="100" height="100" relative="1" as="geometry">
            <Array as="points" />
          </mxGeometry>
        </mxCell>
        <mxCell id="QaZdnvuTD9Rjo6igAOZW-89" value=" 1,N" style="html=1;overflow=block;blockSpacing=1;whiteSpace=wrap;fontSize=16.7;fontColor=#3a414a;spacing=3.8;strokeOpacity=0;fillOpacity=0;rounded=1;absoluteArcSize=1;arcSize=9;fillColor=#ffffff;strokeWidth=0.8;lucidId=.PUKQzckTx9x;" vertex="1" parent="1">
          <mxGeometry x="580" y="430" width="105" height="45" as="geometry" />
        </mxCell>
        <mxCell id="QaZdnvuTD9Rjo6igAOZW-90" value="" style="html=1;jettySize=18;whiteSpace=wrap;fontSize=13;strokeColor=#3a414a;strokeOpacity=100;strokeWidth=0.8;rounded=1;arcSize=12;edgeStyle=orthogonalEdgeStyle;startArrow=none;endArrow=none;exitX=0.063;exitY=-0.006;exitPerimeter=0;entryX=0.5;entryY=1.049;entryPerimeter=0;lucidId=7jVKyT747UAW;" edge="1" parent="1" source="QaZdnvuTD9Rjo6igAOZW-84" target="QaZdnvuTD9Rjo6igAOZW-91">
          <mxGeometry width="100" height="100" relative="1" as="geometry">
            <Array as="points" />
          </mxGeometry>
        </mxCell>
        <mxCell id="QaZdnvuTD9Rjo6igAOZW-91" value="      " style="html=1;overflow=block;blockSpacing=1;whiteSpace=wrap;ellipse;fontSize=16.7;fontColor=#3a414a;spacing=3.8;strokeColor=#3a414a;strokeOpacity=100;fillOpacity=100;rounded=1;absoluteArcSize=1;arcSize=9;fillColor=#000000;strokeWidth=0.8;lucidId=8jVKk~DG.feo;" vertex="1" parent="1">
          <mxGeometry x="280" y="413" width="15" height="8" as="geometry" />
        </mxCell>
        <mxCell id="QaZdnvuTD9Rjo6igAOZW-92" value="EMP_NUM" style="html=1;overflow=block;blockSpacing=1;whiteSpace=wrap;fontSize=13.3;fontColor=#3a414a;spacing=3.8;strokeOpacity=0;fillOpacity=0;rounded=1;absoluteArcSize=1;arcSize=9;fillColor=#ffffff;strokeWidth=0.8;lucidId=ilVKILsEL.rR;" vertex="1" parent="1">
          <mxGeometry x="205" y="413" width="75" height="8" as="geometry" />
        </mxCell>
        <mxCell id="QaZdnvuTD9Rjo6igAOZW-93" value="" style="html=1;jettySize=18;whiteSpace=wrap;fontSize=13;strokeColor=#3a414a;strokeOpacity=100;strokeWidth=0.8;rounded=1;arcSize=12;edgeStyle=orthogonalEdgeStyle;startArrow=none;endArrow=none;exitX=0.188;exitY=-0.006;exitPerimeter=0;entryX=0.5;entryY=1.028;entryPerimeter=0;lucidId=AmVKfJqPIGCh;" edge="1" parent="1" source="QaZdnvuTD9Rjo6igAOZW-84" target="QaZdnvuTD9Rjo6igAOZW-94">
          <mxGeometry width="100" height="100" relative="1" as="geometry">
            <Array as="points" />
          </mxGeometry>
        </mxCell>
        <mxCell id="QaZdnvuTD9Rjo6igAOZW-94" value="      " style="html=1;overflow=block;blockSpacing=1;whiteSpace=wrap;ellipse;fontSize=16.7;fontColor=#3a414a;spacing=3.8;strokeColor=#3a414a;strokeOpacity=100;fillOpacity=100;rounded=1;absoluteArcSize=1;arcSize=9;fillColor=#ffffff;strokeWidth=0.8;lucidId=AmVKzBXuTSIs;" vertex="1" parent="1">
          <mxGeometry x="295" y="390" width="15" height="14" as="geometry" />
        </mxCell>
        <mxCell id="QaZdnvuTD9Rjo6igAOZW-96" value="" style="html=1;jettySize=18;whiteSpace=wrap;fontSize=13;strokeColor=#3a414a;strokeOpacity=100;strokeWidth=0.8;rounded=1;arcSize=12;edgeStyle=orthogonalEdgeStyle;startArrow=none;endArrow=none;exitX=0.313;exitY=-0.006;exitPerimeter=0;entryX=0.5;entryY=1.028;entryPerimeter=0;lucidId=coVKm8W3ZiYt;" edge="1" parent="1" source="QaZdnvuTD9Rjo6igAOZW-84" target="QaZdnvuTD9Rjo6igAOZW-97">
          <mxGeometry width="100" height="100" relative="1" as="geometry">
            <Array as="points" />
          </mxGeometry>
        </mxCell>
        <mxCell id="QaZdnvuTD9Rjo6igAOZW-97" value="      " style="html=1;overflow=block;blockSpacing=1;whiteSpace=wrap;ellipse;fontSize=16.7;fontColor=#3a414a;spacing=3.8;strokeColor=#3a414a;strokeOpacity=100;fillOpacity=100;rounded=1;absoluteArcSize=1;arcSize=9;fillColor=#ffffff;strokeWidth=0.8;lucidId=coVKWn.t1rwF;" vertex="1" parent="1">
          <mxGeometry x="310" y="369" width="15" height="14" as="geometry" />
        </mxCell>
        <mxCell id="QaZdnvuTD9Rjo6igAOZW-98" value="EMP_LNAME" style="html=1;overflow=block;blockSpacing=1;whiteSpace=wrap;fontSize=13.3;fontColor=#3a414a;spacing=3.8;strokeOpacity=0;fillOpacity=0;rounded=1;absoluteArcSize=1;arcSize=9;fillColor=#ffffff;strokeWidth=0.8;lucidId=coVKMRL6UHah;" vertex="1" parent="1">
          <mxGeometry x="220" y="369" width="75" height="14" as="geometry" />
        </mxCell>
        <mxCell id="QaZdnvuTD9Rjo6igAOZW-99" value="" style="html=1;jettySize=18;whiteSpace=wrap;fontSize=13;strokeColor=#3a414a;strokeOpacity=100;strokeWidth=0.8;rounded=1;arcSize=12;edgeStyle=orthogonalEdgeStyle;startArrow=none;endArrow=none;exitX=0.438;exitY=-0.006;exitPerimeter=0;entryX=0.5;entryY=1.028;entryPerimeter=0;lucidId=roVKiwSeDaVq;" edge="1" parent="1" source="QaZdnvuTD9Rjo6igAOZW-84" target="QaZdnvuTD9Rjo6igAOZW-100">
          <mxGeometry width="100" height="100" relative="1" as="geometry">
            <Array as="points" />
          </mxGeometry>
        </mxCell>
        <mxCell id="QaZdnvuTD9Rjo6igAOZW-100" value="      " style="html=1;overflow=block;blockSpacing=1;whiteSpace=wrap;ellipse;fontSize=16.7;fontColor=#3a414a;spacing=3.8;strokeColor=#3a414a;strokeOpacity=100;fillOpacity=100;rounded=1;absoluteArcSize=1;arcSize=9;fillColor=#ffffff;strokeWidth=0.8;lucidId=roVKkqk5c~9W;" vertex="1" parent="1">
          <mxGeometry x="325" y="349" width="15" height="14" as="geometry" />
        </mxCell>
        <mxCell id="QaZdnvuTD9Rjo6igAOZW-101" value="EMP_FNAME" style="html=1;overflow=block;blockSpacing=1;whiteSpace=wrap;fontSize=13.3;fontColor=#3a414a;spacing=3.8;strokeOpacity=0;fillOpacity=0;rounded=1;absoluteArcSize=1;arcSize=9;fillColor=#ffffff;strokeWidth=0.8;lucidId=roVKPrWsnN.-;" vertex="1" parent="1">
          <mxGeometry x="235" y="349" width="75" height="14" as="geometry" />
        </mxCell>
        <mxCell id="QaZdnvuTD9Rjo6igAOZW-102" value="" style="html=1;jettySize=18;whiteSpace=wrap;fontSize=13;strokeColor=#3a414a;strokeOpacity=100;strokeWidth=0.8;rounded=1;arcSize=12;edgeStyle=orthogonalEdgeStyle;startArrow=none;endArrow=none;exitX=0.562;exitY=-0.006;exitPerimeter=0;entryX=0.5;entryY=1.028;entryPerimeter=0;lucidId=FoVK4zzBq5yE;" edge="1" parent="1" source="QaZdnvuTD9Rjo6igAOZW-84" target="QaZdnvuTD9Rjo6igAOZW-103">
          <mxGeometry width="100" height="100" relative="1" as="geometry">
            <Array as="points" />
          </mxGeometry>
        </mxCell>
        <mxCell id="QaZdnvuTD9Rjo6igAOZW-103" value="      " style="html=1;overflow=block;blockSpacing=1;whiteSpace=wrap;ellipse;fontSize=16.7;fontColor=#3a414a;spacing=3.8;strokeColor=#3a414a;strokeOpacity=100;fillOpacity=100;rounded=1;absoluteArcSize=1;arcSize=9;fillColor=#ffffff;strokeWidth=0.8;lucidId=FoVKDVVoTG5t;" vertex="1" parent="1">
          <mxGeometry x="340" y="330" width="15" height="14" as="geometry" />
        </mxCell>
        <mxCell id="QaZdnvuTD9Rjo6igAOZW-104" value="EMP_INITIAL" style="html=1;overflow=block;blockSpacing=1;whiteSpace=wrap;fontSize=13.3;fontColor=#3a414a;spacing=3.8;strokeOpacity=0;fillOpacity=0;rounded=1;absoluteArcSize=1;arcSize=9;fillColor=#ffffff;strokeWidth=0.8;lucidId=FoVKqou4in6y;" vertex="1" parent="1">
          <mxGeometry x="250" y="330" width="75" height="14" as="geometry" />
        </mxCell>
        <mxCell id="QaZdnvuTD9Rjo6igAOZW-105" value="" style="html=1;jettySize=18;whiteSpace=wrap;fontSize=13;strokeColor=#3a414a;strokeOpacity=100;strokeWidth=0.8;rounded=1;arcSize=12;edgeStyle=orthogonalEdgeStyle;startArrow=none;endArrow=none;exitX=0.688;exitY=-0.006;exitPerimeter=0;entryX=0.5;entryY=1.028;entryPerimeter=0;lucidId=OoVKWEEKpmHh;" edge="1" parent="1" source="QaZdnvuTD9Rjo6igAOZW-84" target="QaZdnvuTD9Rjo6igAOZW-106">
          <mxGeometry width="100" height="100" relative="1" as="geometry">
            <Array as="points" />
          </mxGeometry>
        </mxCell>
        <mxCell id="QaZdnvuTD9Rjo6igAOZW-106" value="      " style="html=1;overflow=block;blockSpacing=1;whiteSpace=wrap;ellipse;fontSize=16.7;fontColor=#3a414a;spacing=3.8;strokeColor=#3a414a;strokeOpacity=100;fillOpacity=100;rounded=1;absoluteArcSize=1;arcSize=9;fillColor=#ffffff;strokeWidth=0.8;lucidId=OoVKvK0YwnAF;" vertex="1" parent="1">
          <mxGeometry x="355" y="314" width="15" height="14" as="geometry" />
        </mxCell>
        <mxCell id="QaZdnvuTD9Rjo6igAOZW-107" value="EMP_DOB" style="html=1;overflow=block;blockSpacing=1;whiteSpace=wrap;fontSize=13.3;fontColor=#3a414a;spacing=3.8;strokeOpacity=0;fillOpacity=0;rounded=1;absoluteArcSize=1;arcSize=9;fillColor=#ffffff;strokeWidth=0.8;lucidId=OoVK.Rr8dshz;" vertex="1" parent="1">
          <mxGeometry x="265" y="314" width="75" height="14" as="geometry" />
        </mxCell>
        <mxCell id="QaZdnvuTD9Rjo6igAOZW-108" value="" style="html=1;jettySize=18;whiteSpace=wrap;fontSize=13;strokeColor=#3a414a;strokeOpacity=100;strokeWidth=0.8;rounded=1;arcSize=12;edgeStyle=orthogonalEdgeStyle;startArrow=none;endArrow=none;exitX=0.813;exitY=-0.006;exitPerimeter=0;entryX=0.5;entryY=1.028;entryPerimeter=0;lucidId=YoVKkBwV.alo;" edge="1" parent="1" source="QaZdnvuTD9Rjo6igAOZW-84" target="QaZdnvuTD9Rjo6igAOZW-109">
          <mxGeometry width="100" height="100" relative="1" as="geometry">
            <Array as="points" />
          </mxGeometry>
        </mxCell>
        <mxCell id="QaZdnvuTD9Rjo6igAOZW-109" value="      " style="html=1;overflow=block;blockSpacing=1;whiteSpace=wrap;ellipse;fontSize=16.7;fontColor=#3a414a;spacing=3.8;strokeColor=#3a414a;strokeOpacity=100;fillOpacity=100;rounded=1;absoluteArcSize=1;arcSize=9;fillColor=#ffffff;strokeWidth=0.8;lucidId=YoVKM.~THI5N;" vertex="1" parent="1">
          <mxGeometry x="370" y="300" width="15" height="14" as="geometry" />
        </mxCell>
        <mxCell id="QaZdnvuTD9Rjo6igAOZW-110" value="EMP_HIDE_DADE" style="html=1;overflow=block;blockSpacing=1;whiteSpace=wrap;fontSize=13.3;fontColor=#3a414a;spacing=3.8;strokeOpacity=0;fillOpacity=0;rounded=1;absoluteArcSize=1;arcSize=9;fillColor=#ffffff;strokeWidth=0.8;lucidId=YoVKOJvCPQ5a;" vertex="1" parent="1">
          <mxGeometry x="250" y="292" width="75" height="14" as="geometry" />
        </mxCell>
        <mxCell id="QaZdnvuTD9Rjo6igAOZW-111" value="" style="html=1;jettySize=18;whiteSpace=wrap;fontSize=13;strokeColor=#3a414a;strokeOpacity=100;strokeWidth=0.8;rounded=1;arcSize=12;edgeStyle=orthogonalEdgeStyle;startArrow=none;endArrow=none;exitX=0.5;exitY=1.005;exitPerimeter=0;entryX=0.5;entryY=0.012;entryPerimeter=0;lucidId=ErVKUFiPvaDf;" edge="1" parent="1" source="QaZdnvuTD9Rjo6igAOZW-86" target="QaZdnvuTD9Rjo6igAOZW-112">
          <mxGeometry width="100" height="100" relative="1" as="geometry">
            <Array as="points" />
          </mxGeometry>
        </mxCell>
        <mxCell id="QaZdnvuTD9Rjo6igAOZW-112" value="USA" style="html=1;overflow=block;blockSpacing=1;whiteSpace=wrap;rhombus;fontSize=16.7;fontColor=#3a414a;spacing=3.8;strokeColor=#3a414a;strokeOpacity=100;rounded=1;absoluteArcSize=1;arcSize=9;strokeWidth=0.8;lucidId=NrVKRT_f0rGR;" vertex="1" parent="1">
          <mxGeometry x="662" y="557" width="120" height="90" as="geometry" />
        </mxCell>
        <mxCell id="QaZdnvuTD9Rjo6igAOZW-113" value="" style="html=1;jettySize=18;whiteSpace=wrap;fontSize=13;strokeColor=#3a414a;strokeOpacity=100;strokeWidth=0.8;rounded=1;arcSize=12;edgeStyle=orthogonalEdgeStyle;startArrow=none;endArrow=none;entryX=0.5;entryY=1.048;entryPerimeter=0;lucidId=XsVKGiFDdq66;" edge="1" parent="1" target="QaZdnvuTD9Rjo6igAOZW-114">
          <mxGeometry width="100" height="100" relative="1" as="geometry">
            <Array as="points" />
            <mxPoint x="782" y="705" as="sourcePoint" />
          </mxGeometry>
        </mxCell>
        <mxCell id="QaZdnvuTD9Rjo6igAOZW-114" value="      " style="html=1;overflow=block;blockSpacing=1;whiteSpace=wrap;ellipse;fontSize=16.7;fontColor=#3a414a;spacing=3.8;strokeColor=#3a414a;strokeOpacity=100;fillOpacity=100;rounded=1;absoluteArcSize=1;arcSize=9;rotation=90;fillColor=#000000;strokeWidth=0.8;lucidId=XsVKEdbdH5K5;" vertex="1" parent="1">
          <mxGeometry x="787" y="701" width="14" height="8" as="geometry" />
        </mxCell>
        <mxCell id="QaZdnvuTD9Rjo6igAOZW-115" value="CHAR_HOURS_FLOWN" style="html=1;overflow=block;blockSpacing=1;whiteSpace=wrap;fontSize=13.3;fontColor=#3a414a;spacing=3.8;strokeOpacity=0;fillOpacity=0;rounded=1;absoluteArcSize=1;arcSize=9;fillColor=#ffffff;strokeWidth=0.8;lucidId=XsVKfWjLapSa;" vertex="1" parent="1">
          <mxGeometry x="940" y="798" width="68" height="8" as="geometry" />
        </mxCell>
        <mxCell id="QaZdnvuTD9Rjo6igAOZW-116" value="" style="html=1;jettySize=18;whiteSpace=wrap;fontSize=13;strokeColor=#3a414a;strokeOpacity=100;strokeWidth=0.8;rounded=1;arcSize=12;edgeStyle=orthogonalEdgeStyle;startArrow=none;endArrow=none;entryX=0.5;entryY=1.028;entryPerimeter=0;lucidId=XsVK3bPtKEE0;" edge="1" parent="1" target="QaZdnvuTD9Rjo6igAOZW-117">
          <mxGeometry width="100" height="100" relative="1" as="geometry">
            <Array as="points" />
            <mxPoint x="782" y="719" as="sourcePoint" />
          </mxGeometry>
        </mxCell>
        <mxCell id="QaZdnvuTD9Rjo6igAOZW-117" value="      " style="html=1;overflow=block;blockSpacing=1;whiteSpace=wrap;ellipse;fontSize=16.7;fontColor=#3a414a;spacing=3.8;strokeColor=#3a414a;strokeOpacity=100;fillOpacity=100;rounded=1;absoluteArcSize=1;arcSize=9;rotation=90;fillColor=#000000;strokeWidth=0.8;lucidId=XsVK0rUvCctg;" vertex="1" parent="1">
          <mxGeometry x="808" y="712" width="14" height="14" as="geometry" />
        </mxCell>
        <mxCell id="QaZdnvuTD9Rjo6igAOZW-118" value="CHAR_DISTANCE" style="html=1;overflow=block;blockSpacing=1;whiteSpace=wrap;fontSize=13.3;fontColor=#3a414a;spacing=3.8;strokeOpacity=0;fillOpacity=0;rounded=1;absoluteArcSize=1;arcSize=9;fillColor=#ffffff;strokeWidth=0.8;lucidId=XsVKQtjlmuZH;" vertex="1" parent="1">
          <mxGeometry x="924" y="784" width="68" height="14" as="geometry" />
        </mxCell>
        <mxCell id="QaZdnvuTD9Rjo6igAOZW-119" value="" style="html=1;jettySize=18;whiteSpace=wrap;fontSize=13;strokeColor=#3a414a;strokeOpacity=100;strokeWidth=0.8;rounded=1;arcSize=12;edgeStyle=orthogonalEdgeStyle;startArrow=none;endArrow=none;entryX=0.5;entryY=1.028;entryPerimeter=0;lucidId=XsVKCcpj4Buo;" edge="1" parent="1" target="QaZdnvuTD9Rjo6igAOZW-120">
          <mxGeometry width="100" height="100" relative="1" as="geometry">
            <Array as="points" />
            <mxPoint x="782" y="732" as="sourcePoint" />
          </mxGeometry>
        </mxCell>
        <mxCell id="QaZdnvuTD9Rjo6igAOZW-120" value="      " style="html=1;overflow=block;blockSpacing=1;whiteSpace=wrap;ellipse;fontSize=16.7;fontColor=#3a414a;spacing=3.8;strokeColor=#3a414a;strokeOpacity=100;fillOpacity=100;rounded=1;absoluteArcSize=1;arcSize=9;rotation=90;fillColor=#ffffff;strokeWidth=0.8;lucidId=XsVKpaMasbNZ;" vertex="1" parent="1">
          <mxGeometry x="828" y="726" width="14" height="14" as="geometry" />
        </mxCell>
        <mxCell id="QaZdnvuTD9Rjo6igAOZW-121" value="CHAR_DESTINATION" style="html=1;overflow=block;blockSpacing=1;whiteSpace=wrap;fontSize=13.3;fontColor=#3a414a;spacing=3.8;strokeOpacity=0;fillOpacity=0;rounded=1;absoluteArcSize=1;arcSize=9;fillColor=#ffffff;strokeWidth=0.8;lucidId=XsVKRJbCHgHA;" vertex="1" parent="1">
          <mxGeometry x="910" y="770" width="68" height="14" as="geometry" />
        </mxCell>
        <mxCell id="QaZdnvuTD9Rjo6igAOZW-122" value="" style="html=1;jettySize=18;whiteSpace=wrap;fontSize=13;strokeColor=#3a414a;strokeOpacity=100;strokeWidth=0.8;rounded=1;arcSize=12;edgeStyle=orthogonalEdgeStyle;startArrow=none;endArrow=none;exitX=1.003;exitY=0.398;exitPerimeter=0;entryX=0.5;entryY=1.028;entryPerimeter=0;lucidId=XsVKovY6oCNH;" edge="1" parent="1" source="QaZdnvuTD9Rjo6igAOZW-131" target="QaZdnvuTD9Rjo6igAOZW-123">
          <mxGeometry width="100" height="100" relative="1" as="geometry">
            <Array as="points" />
          </mxGeometry>
        </mxCell>
        <mxCell id="QaZdnvuTD9Rjo6igAOZW-123" value="      " style="html=1;overflow=block;blockSpacing=1;whiteSpace=wrap;ellipse;fontSize=16.7;fontColor=#3a414a;spacing=3.8;strokeColor=#3a414a;strokeOpacity=100;fillOpacity=100;rounded=1;absoluteArcSize=1;arcSize=9;rotation=90;fillColor=#ffffff;strokeWidth=0.8;lucidId=XsVKsJc.Cn8e;" vertex="1" parent="1">
          <mxGeometry x="849" y="739" width="14" height="14" as="geometry" />
        </mxCell>
        <mxCell id="QaZdnvuTD9Rjo6igAOZW-124" value="" style="html=1;jettySize=18;whiteSpace=wrap;fontSize=13;strokeColor=#3a414a;strokeOpacity=100;strokeWidth=0.8;rounded=1;arcSize=12;edgeStyle=orthogonalEdgeStyle;startArrow=none;endArrow=none;entryX=0.5;entryY=1.028;entryPerimeter=0;lucidId=XsVKAWl.Bhye;" edge="1" parent="1" target="QaZdnvuTD9Rjo6igAOZW-125">
          <mxGeometry width="100" height="100" relative="1" as="geometry">
            <Array as="points" />
            <mxPoint x="782" y="763" as="sourcePoint" />
          </mxGeometry>
        </mxCell>
        <mxCell id="QaZdnvuTD9Rjo6igAOZW-125" value="      " style="html=1;overflow=block;blockSpacing=1;whiteSpace=wrap;ellipse;fontSize=16.7;fontColor=#3a414a;spacing=3.8;strokeColor=#3a414a;strokeOpacity=100;fillOpacity=100;rounded=1;absoluteArcSize=1;arcSize=9;rotation=90;fillColor=#ffffff;strokeWidth=0.8;lucidId=XsVKzsW0eGgi;" vertex="1" parent="1">
          <mxGeometry x="868" y="756" width="14" height="14" as="geometry" />
        </mxCell>
        <mxCell id="QaZdnvuTD9Rjo6igAOZW-126" value="" style="html=1;jettySize=18;whiteSpace=wrap;fontSize=13;strokeColor=#3a414a;strokeOpacity=100;strokeWidth=0.8;rounded=1;arcSize=12;edgeStyle=orthogonalEdgeStyle;startArrow=none;endArrow=none;entryX=0.5;entryY=1.028;entryPerimeter=0;lucidId=XsVKWgLvt9~4;" edge="1" parent="1" target="QaZdnvuTD9Rjo6igAOZW-127">
          <mxGeometry width="100" height="100" relative="1" as="geometry">
            <Array as="points" />
            <mxPoint x="777" y="780" as="sourcePoint" />
          </mxGeometry>
        </mxCell>
        <mxCell id="QaZdnvuTD9Rjo6igAOZW-127" value="      " style="html=1;overflow=block;blockSpacing=1;whiteSpace=wrap;ellipse;fontSize=16.7;fontColor=#3a414a;spacing=3.8;strokeColor=#3a414a;strokeOpacity=100;fillOpacity=100;rounded=1;absoluteArcSize=1;arcSize=9;rotation=90;fillColor=#ffffff;strokeWidth=0.8;lucidId=XsVKoP~dsWCk;" vertex="1" parent="1">
          <mxGeometry x="880" y="773" width="14" height="14" as="geometry" />
        </mxCell>
        <mxCell id="QaZdnvuTD9Rjo6igAOZW-128" value="" style="html=1;jettySize=18;whiteSpace=wrap;fontSize=13;strokeColor=#3a414a;strokeOpacity=100;strokeWidth=0.8;rounded=1;arcSize=12;edgeStyle=orthogonalEdgeStyle;startArrow=none;endArrow=none;entryX=0.5;entryY=1.028;entryPerimeter=0;lucidId=XsVK013DZ_Un;" edge="1" parent="1" target="QaZdnvuTD9Rjo6igAOZW-129">
          <mxGeometry width="100" height="100" relative="1" as="geometry">
            <Array as="points" />
            <mxPoint x="777" y="794" as="sourcePoint" />
          </mxGeometry>
        </mxCell>
        <mxCell id="QaZdnvuTD9Rjo6igAOZW-129" value="      " style="html=1;overflow=block;blockSpacing=1;whiteSpace=wrap;ellipse;fontSize=16.7;fontColor=#3a414a;spacing=3.8;strokeColor=#3a414a;strokeOpacity=100;fillOpacity=100;rounded=1;absoluteArcSize=1;arcSize=9;rotation=90;fillColor=#ffffff;strokeWidth=0.8;lucidId=XsVK644nVYJr;" vertex="1" parent="1">
          <mxGeometry x="893" y="787" width="14" height="14" as="geometry" />
        </mxCell>
        <mxCell id="QaZdnvuTD9Rjo6igAOZW-130" value="" style="html=1;jettySize=18;whiteSpace=wrap;fontSize=13;strokeColor=#3a414a;strokeOpacity=100;strokeWidth=0.8;rounded=1;arcSize=12;edgeStyle=orthogonalEdgeStyle;startArrow=none;endArrow=none;exitX=0.5;exitY=0.988;exitPerimeter=0;entryX=0.5;entryY=-0.004;entryPerimeter=0;lucidId=0sVKfE.GodQv;" edge="1" parent="1" source="QaZdnvuTD9Rjo6igAOZW-112" target="QaZdnvuTD9Rjo6igAOZW-131">
          <mxGeometry width="100" height="100" relative="1" as="geometry">
            <Array as="points" />
          </mxGeometry>
        </mxCell>
        <mxCell id="QaZdnvuTD9Rjo6igAOZW-131" value="FRETAMENTO" style="html=1;overflow=block;blockSpacing=1;whiteSpace=wrap;fontSize=16.7;fontColor=#3a414a;spacing=3.8;strokeColor=#3a414a;strokeOpacity=100;rounded=1;absoluteArcSize=1;arcSize=9;strokeWidth=0.8;lucidId=1sVK_bzFFvzq;" vertex="1" parent="1">
          <mxGeometry x="662" y="704" width="120" height="106" as="geometry" />
        </mxCell>
        <mxCell id="QaZdnvuTD9Rjo6igAOZW-132" value="" style="html=1;jettySize=18;whiteSpace=wrap;fontSize=13;strokeColor=#3a414a;strokeOpacity=100;strokeWidth=0.8;rounded=1;arcSize=12;edgeStyle=orthogonalEdgeStyle;startArrow=none;endArrow=none;exitX=1.001;exitY=0.973;exitPerimeter=0;entryX=0.5;entryY=1.028;entryPerimeter=0;lucidId=EuVKKK~ylOjs;" edge="1" parent="1" source="QaZdnvuTD9Rjo6igAOZW-131" target="QaZdnvuTD9Rjo6igAOZW-133">
          <mxGeometry width="100" height="100" relative="1" as="geometry">
            <Array as="points" />
          </mxGeometry>
        </mxCell>
        <mxCell id="QaZdnvuTD9Rjo6igAOZW-133" value="      " style="html=1;overflow=block;blockSpacing=1;whiteSpace=wrap;ellipse;fontSize=16.7;fontColor=#3a414a;spacing=3.8;strokeColor=#3a414a;strokeOpacity=100;fillOpacity=100;rounded=1;absoluteArcSize=1;arcSize=9;rotation=90;fillColor=#ffffff;strokeWidth=0.8;lucidId=EuVKf8W1u7nF;" vertex="1" parent="1">
          <mxGeometry x="910" y="800" width="14" height="14" as="geometry" />
        </mxCell>
        <mxCell id="QaZdnvuTD9Rjo6igAOZW-134" value="CHAR_TRIP" style="html=1;overflow=block;blockSpacing=1;whiteSpace=wrap;fontSize=13.3;fontColor=#3a414a;spacing=3.8;strokeOpacity=0;fillOpacity=0;rounded=1;absoluteArcSize=1;arcSize=9;fillColor=#ffffff;strokeWidth=0.8;lucidId=cvVK3Fo7PvzJ;" vertex="1" parent="1">
          <mxGeometry x="813" y="690" width="68" height="14" as="geometry" />
        </mxCell>
        <mxCell id="QaZdnvuTD9Rjo6igAOZW-135" value="CUS_CODE" style="html=1;overflow=block;blockSpacing=1;whiteSpace=wrap;fontSize=13.3;fontColor=#3a414a;spacing=3.8;strokeOpacity=0;fillOpacity=0;rounded=1;absoluteArcSize=1;arcSize=9;fillColor=#ffffff;strokeWidth=0.8;lucidId=dvVK1JPwbk6h;" vertex="1" parent="1">
          <mxGeometry x="835" y="704" width="68" height="14" as="geometry" />
        </mxCell>
        <mxCell id="QaZdnvuTD9Rjo6igAOZW-136" value="CHAR_DADE" style="html=1;overflow=block;blockSpacing=1;whiteSpace=wrap;fontSize=13.3;fontColor=#3a414a;spacing=3.8;strokeOpacity=0;fillOpacity=0;rounded=1;absoluteArcSize=1;arcSize=9;fillColor=#ffffff;strokeWidth=0.8;lucidId=pvVKL-Nk1Q4t;" vertex="1" parent="1">
          <mxGeometry x="857" y="721" width="68" height="14" as="geometry" />
        </mxCell>
        <mxCell id="QaZdnvuTD9Rjo6igAOZW-137" value="CHAR_PILOT&#xa;" style="html=1;overflow=block;blockSpacing=1;whiteSpace=wrap;fontSize=13.3;fontColor=#3a414a;spacing=3.8;strokeOpacity=0;fillOpacity=0;rounded=1;absoluteArcSize=1;arcSize=9;fillColor=#ffffff;strokeWidth=0.8;lucidId=tvVKGf~1Nd8L;" vertex="1" parent="1">
          <mxGeometry x="880" y="735" width="68" height="14" as="geometry" />
        </mxCell>
        <mxCell id="QaZdnvuTD9Rjo6igAOZW-138" value="CHAR_COPILOT" style="html=1;overflow=block;blockSpacing=1;whiteSpace=wrap;fontSize=13.3;fontColor=#3a414a;spacing=3.8;strokeOpacity=0;fillOpacity=0;rounded=1;absoluteArcSize=1;arcSize=9;fillColor=#ffffff;strokeWidth=0.8;lucidId=bwVKu615~uTa;" vertex="1" parent="1">
          <mxGeometry x="899" y="753" width="68" height="14" as="geometry" />
        </mxCell>
        <mxCell id="QaZdnvuTD9Rjo6igAOZW-144" value="SAO" style="html=1;overflow=block;blockSpacing=1;whiteSpace=wrap;rhombus;fontSize=16.7;fontColor=#3a414a;spacing=3.8;strokeColor=#3a414a;strokeOpacity=100;rounded=1;absoluteArcSize=1;arcSize=9;strokeWidth=0.8;lucidId=NrVKRT_f0rGR;" vertex="1" parent="1">
          <mxGeometry x="90" y="425" width="120" height="73" as="geometry" />
        </mxCell>
        <mxCell id="QaZdnvuTD9Rjo6igAOZW-149" value="" style="html=1;jettySize=18;whiteSpace=wrap;fontSize=13;strokeColor=#3a414a;strokeOpacity=100;strokeWidth=0.8;rounded=1;arcSize=12;edgeStyle=orthogonalEdgeStyle;startArrow=none;endArrow=none;exitX=1;exitY=0.5;entryX=0;entryY=0.5;lucidId=ErVKUFiPvaDf;entryDx=0;entryDy=0;exitDx=0;exitDy=0;" edge="1" parent="1" source="QaZdnvuTD9Rjo6igAOZW-144" target="QaZdnvuTD9Rjo6igAOZW-84">
          <mxGeometry width="100" height="100" relative="1" as="geometry">
            <Array as="points" />
            <mxPoint x="242.07999999999998" y="435" as="sourcePoint" />
            <mxPoint x="242.07999999999998" y="493" as="targetPoint" />
          </mxGeometry>
        </mxCell>
        <mxCell id="QaZdnvuTD9Rjo6igAOZW-150" value="PILOTO" style="whiteSpace=wrap;html=1;fontSize=16.7;strokeColor=#3a414a;fontColor=#3a414a;spacing=3.8;rounded=1;arcSize=9;strokeWidth=0.8;" vertex="1" parent="1">
          <mxGeometry x="90" y="555" width="120" height="60" as="geometry" />
        </mxCell>
        <mxCell id="QaZdnvuTD9Rjo6igAOZW-153" value="" style="html=1;jettySize=18;whiteSpace=wrap;fontSize=13;strokeColor=#3a414a;strokeOpacity=100;strokeWidth=0.8;rounded=1;arcSize=12;edgeStyle=orthogonalEdgeStyle;startArrow=none;endArrow=none;exitX=0.5;exitY=1;entryX=0.5;entryY=0;lucidId=ErVKUFiPvaDf;entryDx=0;entryDy=0;exitDx=0;exitDy=0;" edge="1" parent="1" source="QaZdnvuTD9Rjo6igAOZW-144" target="QaZdnvuTD9Rjo6igAOZW-150">
          <mxGeometry width="100" height="100" relative="1" as="geometry">
            <Array as="points" />
            <mxPoint x="220" y="472" as="sourcePoint" />
            <mxPoint x="290" y="472" as="targetPoint" />
          </mxGeometry>
        </mxCell>
        <mxCell id="QaZdnvuTD9Rjo6igAOZW-154" value="PILOTAM" style="html=1;overflow=block;blockSpacing=1;whiteSpace=wrap;rhombus;fontSize=16.7;fontColor=#3a414a;spacing=3.8;strokeColor=#3a414a;strokeOpacity=100;rounded=1;absoluteArcSize=1;arcSize=9;strokeWidth=0.8;lucidId=NrVKRT_f0rGR;" vertex="1" parent="1">
          <mxGeometry x="400" y="540" width="120" height="90" as="geometry" />
        </mxCell>
        <mxCell id="QaZdnvuTD9Rjo6igAOZW-156" value="" style="html=1;jettySize=18;whiteSpace=wrap;fontSize=13;strokeColor=#3a414a;strokeOpacity=100;strokeWidth=0.8;rounded=1;arcSize=12;edgeStyle=orthogonalEdgeStyle;startArrow=none;endArrow=none;exitX=1;exitY=0.5;entryX=0;entryY=0.5;lucidId=0sVKfE.GodQv;exitDx=0;exitDy=0;entryDx=0;entryDy=0;" edge="1" parent="1" source="QaZdnvuTD9Rjo6igAOZW-150" target="QaZdnvuTD9Rjo6igAOZW-154">
          <mxGeometry width="100" height="100" relative="1" as="geometry">
            <Array as="points" />
            <mxPoint x="742" y="666" as="sourcePoint" />
            <mxPoint x="742" y="724" as="targetPoint" />
          </mxGeometry>
        </mxCell>
        <mxCell id="QaZdnvuTD9Rjo6igAOZW-157" value=" 1,N" style="html=1;overflow=block;blockSpacing=1;whiteSpace=wrap;fontSize=16.7;fontColor=#3a414a;spacing=3.8;strokeOpacity=0;fillOpacity=0;rounded=1;absoluteArcSize=1;arcSize=9;fillColor=#ffffff;strokeWidth=0.8;lucidId=YCUK2FKrBslO;" vertex="1" parent="1">
          <mxGeometry x="175" y="550" width="105" height="45" as="geometry" />
        </mxCell>
        <mxCell id="QaZdnvuTD9Rjo6igAOZW-158" value=" 1,1" style="html=1;overflow=block;blockSpacing=1;whiteSpace=wrap;fontSize=16.7;fontColor=#3a414a;spacing=3.8;strokeOpacity=0;fillOpacity=0;rounded=1;absoluteArcSize=1;arcSize=9;fillColor=#ffffff;strokeWidth=0.8;lucidId=YCUK2FKrBslO;rotation=30;" vertex="1" parent="1">
          <mxGeometry x="591" y="648.5" width="105" height="45" as="geometry" />
        </mxCell>
        <mxCell id="QaZdnvuTD9Rjo6igAOZW-226" value="" style="html=1;jettySize=18;whiteSpace=wrap;fontSize=13;strokeColor=#3a414a;strokeOpacity=100;strokeWidth=0.8;rounded=1;arcSize=12;edgeStyle=orthogonalEdgeStyle;startArrow=none;endArrow=none;exitX=0.5;exitY=1;lucidId=0sVKfE.GodQv;exitDx=0;exitDy=0;entryX=0.5;entryY=0;entryDx=0;entryDy=0;" edge="1" parent="1" source="QaZdnvuTD9Rjo6igAOZW-131" target="QaZdnvuTD9Rjo6igAOZW-228">
          <mxGeometry width="100" height="100" relative="1" as="geometry">
            <Array as="points" />
            <mxPoint x="721.08" y="830" as="sourcePoint" />
            <mxPoint x="721.5" y="880" as="targetPoint" />
          </mxGeometry>
        </mxCell>
        <mxCell id="QaZdnvuTD9Rjo6igAOZW-228" value="ACOMODA" style="html=1;overflow=block;blockSpacing=1;whiteSpace=wrap;rhombus;fontSize=16.7;fontColor=#3a414a;spacing=3.8;strokeColor=#3a414a;strokeOpacity=100;rounded=1;absoluteArcSize=1;arcSize=9;strokeWidth=0.8;lucidId=NrVKRT_f0rGR;" vertex="1" parent="1">
          <mxGeometry x="661.5" y="870" width="120" height="90" as="geometry" />
        </mxCell>
        <mxCell id="QaZdnvuTD9Rjo6igAOZW-229" value="CLIENTE" style="html=1;overflow=block;blockSpacing=1;whiteSpace=wrap;fontSize=16.7;fontColor=#3a414a;spacing=3.8;strokeColor=#3a414a;strokeOpacity=100;rounded=1;absoluteArcSize=1;arcSize=9;strokeWidth=0.8;lucidId=1sVK_bzFFvzq;" vertex="1" parent="1">
          <mxGeometry x="452" y="875" width="120" height="80" as="geometry" />
        </mxCell>
        <mxCell id="QaZdnvuTD9Rjo6igAOZW-230" value="" style="html=1;jettySize=18;whiteSpace=wrap;fontSize=13;strokeColor=#3a414a;strokeOpacity=100;strokeWidth=0.8;rounded=1;arcSize=12;edgeStyle=orthogonalEdgeStyle;startArrow=none;endArrow=none;exitX=1;exitY=0.5;lucidId=0sVKfE.GodQv;exitDx=0;exitDy=0;entryX=0;entryY=0.5;entryDx=0;entryDy=0;" edge="1" parent="1" source="QaZdnvuTD9Rjo6igAOZW-229" target="QaZdnvuTD9Rjo6igAOZW-228">
          <mxGeometry width="100" height="100" relative="1" as="geometry">
            <Array as="points" />
            <mxPoint x="732" y="820" as="sourcePoint" />
            <mxPoint x="732" y="890" as="targetPoint" />
          </mxGeometry>
        </mxCell>
        <mxCell id="QaZdnvuTD9Rjo6igAOZW-237" value="" style="html=1;jettySize=18;whiteSpace=wrap;fontSize=13;strokeColor=#3a414a;strokeOpacity=100;strokeWidth=0.8;rounded=1;arcSize=12;edgeStyle=orthogonalEdgeStyle;startArrow=none;endArrow=none;exitX=0.188;exitY=-0.006;exitPerimeter=0;entryX=0.5;entryY=1.028;entryPerimeter=0;lucidId=AmVKfJqPIGCh;" edge="1" parent="1">
          <mxGeometry width="100" height="100" relative="1" as="geometry">
            <Array as="points" />
            <mxPoint x="100" y="615" as="sourcePoint" />
            <mxPoint x="100" y="641" as="targetPoint" />
          </mxGeometry>
        </mxCell>
        <mxCell id="QaZdnvuTD9Rjo6igAOZW-238" value="" style="html=1;jettySize=18;whiteSpace=wrap;fontSize=13;strokeColor=#3a414a;strokeOpacity=100;strokeWidth=0.8;rounded=1;arcSize=12;edgeStyle=orthogonalEdgeStyle;startArrow=none;endArrow=none;exitX=0.313;exitY=-0.006;exitPerimeter=0;entryX=0.5;entryY=1.028;entryPerimeter=0;lucidId=coVKm8W3ZiYt;" edge="1" parent="1">
          <mxGeometry width="100" height="100" relative="1" as="geometry">
            <Array as="points" />
            <mxPoint x="120" y="662" as="sourcePoint" />
            <mxPoint x="120" y="615" as="targetPoint" />
          </mxGeometry>
        </mxCell>
        <mxCell id="QaZdnvuTD9Rjo6igAOZW-239" value="" style="html=1;jettySize=18;whiteSpace=wrap;fontSize=13;strokeColor=#3a414a;strokeOpacity=100;strokeWidth=0.8;rounded=1;arcSize=12;edgeStyle=orthogonalEdgeStyle;startArrow=none;endArrow=none;exitX=0.438;exitY=-0.006;exitPerimeter=0;entryX=0.5;entryY=1.028;entryPerimeter=0;lucidId=roVKiwSeDaVq;" edge="1" parent="1">
          <mxGeometry width="100" height="100" relative="1" as="geometry">
            <Array as="points" />
            <mxPoint x="140" y="682" as="sourcePoint" />
            <mxPoint x="140" y="615" as="targetPoint" />
          </mxGeometry>
        </mxCell>
        <mxCell id="QaZdnvuTD9Rjo6igAOZW-241" value="" style="html=1;jettySize=18;whiteSpace=wrap;fontSize=13;strokeColor=#3a414a;strokeOpacity=100;strokeWidth=0.8;rounded=1;arcSize=12;edgeStyle=orthogonalEdgeStyle;startArrow=none;endArrow=none;exitX=0.688;exitY=-0.006;exitPerimeter=0;entryX=0.5;entryY=1.028;entryPerimeter=0;lucidId=OoVKWEEKpmHh;" edge="1" parent="1">
          <mxGeometry width="100" height="100" relative="1" as="geometry">
            <Array as="points" />
            <mxPoint x="172.21" y="717" as="sourcePoint" />
            <mxPoint x="172.21" y="615" as="targetPoint" />
          </mxGeometry>
        </mxCell>
        <mxCell id="QaZdnvuTD9Rjo6igAOZW-243" value="" style="html=1;jettySize=18;whiteSpace=wrap;fontSize=13;strokeColor=#3a414a;strokeOpacity=100;strokeWidth=0.8;rounded=1;arcSize=12;edgeStyle=orthogonalEdgeStyle;startArrow=none;endArrow=none;entryX=0.5;entryY=1.028;entryPerimeter=0;lucidId=OoVKWEEKpmHh;" edge="1" parent="1">
          <mxGeometry width="100" height="100" relative="1" as="geometry">
            <Array as="points" />
            <mxPoint x="160" y="700" as="sourcePoint" />
            <mxPoint x="160" y="615" as="targetPoint" />
          </mxGeometry>
        </mxCell>
        <mxCell id="QaZdnvuTD9Rjo6igAOZW-244" value="      " style="html=1;overflow=block;blockSpacing=1;whiteSpace=wrap;ellipse;fontSize=16.7;fontColor=#3a414a;spacing=3.8;strokeColor=#3a414a;strokeOpacity=100;fillOpacity=100;rounded=1;absoluteArcSize=1;arcSize=9;fillColor=#ffffff;strokeWidth=0.8;lucidId=coVKWn.t1rwF;" vertex="1" parent="1">
          <mxGeometry x="110" y="660" width="15" height="14" as="geometry" />
        </mxCell>
        <mxCell id="QaZdnvuTD9Rjo6igAOZW-245" value="      " style="html=1;overflow=block;blockSpacing=1;whiteSpace=wrap;ellipse;fontSize=16.7;fontColor=#3a414a;spacing=3.8;strokeColor=#3a414a;strokeOpacity=100;fillOpacity=100;rounded=1;absoluteArcSize=1;arcSize=9;fillColor=#ffffff;strokeWidth=0.8;lucidId=coVKWn.t1rwF;" vertex="1" parent="1">
          <mxGeometry x="130" y="679.5" width="15" height="14" as="geometry" />
        </mxCell>
        <mxCell id="QaZdnvuTD9Rjo6igAOZW-246" value="      " style="html=1;overflow=block;blockSpacing=1;whiteSpace=wrap;ellipse;fontSize=16.7;fontColor=#3a414a;spacing=3.8;strokeColor=#3a414a;strokeOpacity=100;fillOpacity=100;rounded=1;absoluteArcSize=1;arcSize=9;fillColor=#ffffff;strokeWidth=0.8;lucidId=coVKWn.t1rwF;" vertex="1" parent="1">
          <mxGeometry x="150" y="698" width="15" height="14" as="geometry" />
        </mxCell>
        <mxCell id="QaZdnvuTD9Rjo6igAOZW-247" value="      " style="html=1;overflow=block;blockSpacing=1;whiteSpace=wrap;ellipse;fontSize=16.7;fontColor=#3a414a;spacing=3.8;strokeColor=#3a414a;strokeOpacity=100;fillOpacity=100;rounded=1;absoluteArcSize=1;arcSize=9;fillColor=#ffffff;strokeWidth=0.8;lucidId=coVKWn.t1rwF;" vertex="1" parent="1">
          <mxGeometry x="160" y="718" width="15" height="14" as="geometry" />
        </mxCell>
        <mxCell id="QaZdnvuTD9Rjo6igAOZW-250" value="      " style="html=1;overflow=block;blockSpacing=1;whiteSpace=wrap;ellipse;fontSize=16.7;fontColor=#3a414a;spacing=3.8;strokeColor=#3a414a;strokeOpacity=100;fillOpacity=100;rounded=1;absoluteArcSize=1;arcSize=9;fillColor=#000000;strokeWidth=0.8;lucidId=coVKWn.t1rwF;" vertex="1" parent="1">
          <mxGeometry x="95" y="640" width="15" height="14" as="geometry" />
        </mxCell>
        <mxCell id="QaZdnvuTD9Rjo6igAOZW-251" value="EMP_NUM" style="html=1;overflow=block;blockSpacing=1;whiteSpace=wrap;fontSize=13.3;fontColor=#3a414a;spacing=3.8;strokeOpacity=0;fillOpacity=0;rounded=1;absoluteArcSize=1;arcSize=9;fillColor=#ffffff;strokeWidth=0.8;lucidId=ilVKILsEL.rR;" vertex="1" parent="1">
          <mxGeometry x="20" y="632" width="75" height="8" as="geometry" />
        </mxCell>
        <mxCell id="QaZdnvuTD9Rjo6igAOZW-252" value="PIL_LICENSE" style="html=1;overflow=block;blockSpacing=1;whiteSpace=wrap;fontSize=13.3;fontColor=#3a414a;spacing=3.8;strokeOpacity=0;fillOpacity=0;rounded=1;absoluteArcSize=1;arcSize=9;fillColor=#ffffff;strokeWidth=0.8;lucidId=ilVKILsEL.rR;" vertex="1" parent="1">
          <mxGeometry x="20" y="656" width="75" height="8" as="geometry" />
        </mxCell>
        <mxCell id="QaZdnvuTD9Rjo6igAOZW-253" value="PIL_RATINGS" style="html=1;overflow=block;blockSpacing=1;whiteSpace=wrap;fontSize=13.3;fontColor=#3a414a;spacing=3.8;strokeOpacity=0;fillOpacity=0;rounded=1;absoluteArcSize=1;arcSize=9;fillColor=#ffffff;strokeWidth=0.8;lucidId=ilVKILsEL.rR;" vertex="1" parent="1">
          <mxGeometry x="40" y="674" width="75" height="8" as="geometry" />
        </mxCell>
        <mxCell id="QaZdnvuTD9Rjo6igAOZW-254" value="PIL_MED_TYPE" style="html=1;overflow=block;blockSpacing=1;whiteSpace=wrap;fontSize=13.3;fontColor=#3a414a;spacing=3.8;strokeOpacity=0;fillOpacity=0;rounded=1;absoluteArcSize=1;arcSize=9;fillColor=#ffffff;strokeWidth=0.8;lucidId=ilVKILsEL.rR;" vertex="1" parent="1">
          <mxGeometry x="50" y="693.5" width="75" height="8" as="geometry" />
        </mxCell>
        <mxCell id="QaZdnvuTD9Rjo6igAOZW-255" value="PIL_MED_DATE" style="html=1;overflow=block;blockSpacing=1;whiteSpace=wrap;fontSize=13.3;fontColor=#3a414a;spacing=3.8;strokeOpacity=0;fillOpacity=0;rounded=1;absoluteArcSize=1;arcSize=9;fillColor=#ffffff;strokeWidth=0.8;lucidId=ilVKILsEL.rR;" vertex="1" parent="1">
          <mxGeometry x="55" y="713" width="75" height="8" as="geometry" />
        </mxCell>
        <mxCell id="QaZdnvuTD9Rjo6igAOZW-258" value=" 1,N" style="html=1;overflow=block;blockSpacing=1;whiteSpace=wrap;fontSize=16.7;fontColor=#3a414a;spacing=3.8;strokeOpacity=0;fillOpacity=0;rounded=1;absoluteArcSize=1;arcSize=9;fillColor=#ffffff;strokeWidth=0.8;lucidId=YCUK2FKrBslO;" vertex="1" parent="1">
          <mxGeometry x="200" y="430" width="105" height="45" as="geometry" />
        </mxCell>
        <mxCell id="QaZdnvuTD9Rjo6igAOZW-260" value=" 1,N" style="html=1;overflow=block;blockSpacing=1;whiteSpace=wrap;fontSize=16.7;fontColor=#3a414a;spacing=3.8;strokeOpacity=0;fillOpacity=0;rounded=1;absoluteArcSize=1;arcSize=9;fillColor=#ffffff;strokeWidth=0.8;lucidId=.PUKQzckTx9x;rotation=90;" vertex="1" parent="1">
          <mxGeometry x="677" y="512" width="105" height="45" as="geometry" />
        </mxCell>
        <mxCell id="QaZdnvuTD9Rjo6igAOZW-261" value=" 1,N" style="html=1;overflow=block;blockSpacing=1;whiteSpace=wrap;fontSize=16.7;fontColor=#3a414a;spacing=3.8;strokeOpacity=0;fillOpacity=0;rounded=1;absoluteArcSize=1;arcSize=9;fillColor=#ffffff;strokeWidth=0.8;lucidId=.PUKQzckTx9x;rotation=90;" vertex="1" parent="1">
          <mxGeometry x="677" y="644.5" width="105" height="45" as="geometry" />
        </mxCell>
        <mxCell id="QaZdnvuTD9Rjo6igAOZW-262" value="" style="html=1;jettySize=18;whiteSpace=wrap;fontSize=13;strokeColor=#3a414a;strokeOpacity=100;strokeWidth=0.8;rounded=1;arcSize=12;edgeStyle=orthogonalEdgeStyle;startArrow=none;endArrow=none;lucidId=0sVKfE.GodQv;entryX=1;entryY=0.5;entryDx=0;entryDy=0;" edge="1" parent="1" target="QaZdnvuTD9Rjo6igAOZW-263">
          <mxGeometry width="100" height="100" relative="1" as="geometry">
            <Array as="points" />
            <mxPoint x="660" y="780" as="sourcePoint" />
            <mxPoint x="490" y="780" as="targetPoint" />
          </mxGeometry>
        </mxCell>
        <mxCell id="QaZdnvuTD9Rjo6igAOZW-263" value="FAZ" style="html=1;overflow=block;blockSpacing=1;whiteSpace=wrap;rhombus;fontSize=16.7;fontColor=#3a414a;spacing=3.8;strokeColor=#3a414a;strokeOpacity=100;rounded=1;absoluteArcSize=1;arcSize=9;strokeWidth=0.8;lucidId=NrVKRT_f0rGR;" vertex="1" parent="1">
          <mxGeometry x="430" y="735" width="120" height="90" as="geometry" />
        </mxCell>
        <mxCell id="QaZdnvuTD9Rjo6igAOZW-264" value="" style="html=1;jettySize=18;whiteSpace=wrap;fontSize=13;strokeColor=#3a414a;strokeOpacity=100;strokeWidth=0.8;rounded=1;arcSize=12;edgeStyle=orthogonalEdgeStyle;startArrow=none;endArrow=none;lucidId=0sVKfE.GodQv;exitX=0;exitY=0.5;exitDx=0;exitDy=0;entryX=1;entryY=0.5;entryDx=0;entryDy=0;" edge="1" parent="1" source="QaZdnvuTD9Rjo6igAOZW-316" target="QaZdnvuTD9Rjo6igAOZW-265">
          <mxGeometry width="100" height="100" relative="1" as="geometry">
            <Array as="points" />
            <mxPoint x="385" y="779.58" as="sourcePoint" />
            <mxPoint x="280" y="780" as="targetPoint" />
          </mxGeometry>
        </mxCell>
        <mxCell id="QaZdnvuTD9Rjo6igAOZW-265" value="AERONAVE" style="whiteSpace=wrap;html=1;fontSize=16.7;strokeColor=#3a414a;fontColor=#3a414a;spacing=3.8;rounded=1;arcSize=9;strokeWidth=0.8;" vertex="1" parent="1">
          <mxGeometry x="220" y="750" width="120" height="60" as="geometry" />
        </mxCell>
        <mxCell id="QaZdnvuTD9Rjo6igAOZW-297" value="      " style="html=1;overflow=block;blockSpacing=1;whiteSpace=wrap;ellipse;fontSize=16.7;fontColor=#3a414a;spacing=3.8;strokeColor=#3a414a;strokeOpacity=100;fillOpacity=100;rounded=1;absoluteArcSize=1;arcSize=9;fillColor=#000000;strokeWidth=0.8;lucidId=8jVKk~DG.feo;" vertex="1" parent="1">
          <mxGeometry x="265" y="733" width="15" height="8" as="geometry" />
        </mxCell>
        <mxCell id="QaZdnvuTD9Rjo6igAOZW-298" value="AC_NUMBER" style="html=1;overflow=block;blockSpacing=1;whiteSpace=wrap;fontSize=13.3;fontColor=#3a414a;spacing=3.8;strokeOpacity=0;fillOpacity=0;rounded=1;absoluteArcSize=1;arcSize=9;fillColor=#ffffff;strokeWidth=0.8;lucidId=ilVKILsEL.rR;" vertex="1" parent="1">
          <mxGeometry x="180" y="725" width="75" height="8" as="geometry" />
        </mxCell>
        <mxCell id="QaZdnvuTD9Rjo6igAOZW-299" value="" style="html=1;jettySize=18;whiteSpace=wrap;fontSize=13;strokeColor=#3a414a;strokeOpacity=100;strokeWidth=0.8;rounded=1;arcSize=12;edgeStyle=orthogonalEdgeStyle;startArrow=none;endArrow=none;exitX=0.188;exitY=-0.006;exitPerimeter=0;entryX=0.5;entryY=1.028;entryPerimeter=0;lucidId=AmVKfJqPIGCh;" edge="1" parent="1" target="QaZdnvuTD9Rjo6igAOZW-300">
          <mxGeometry width="100" height="100" relative="1" as="geometry">
            <Array as="points" />
            <mxPoint x="288" y="750" as="sourcePoint" />
          </mxGeometry>
        </mxCell>
        <mxCell id="QaZdnvuTD9Rjo6igAOZW-300" value="      " style="html=1;overflow=block;blockSpacing=1;whiteSpace=wrap;ellipse;fontSize=16.7;fontColor=#3a414a;spacing=3.8;strokeColor=#3a414a;strokeOpacity=100;fillOpacity=100;rounded=1;absoluteArcSize=1;arcSize=9;fillColor=#ffffff;strokeWidth=0.8;lucidId=AmVKzBXuTSIs;" vertex="1" parent="1">
          <mxGeometry x="280" y="710" width="15" height="14" as="geometry" />
        </mxCell>
        <mxCell id="QaZdnvuTD9Rjo6igAOZW-301" value="MOD_CODE" style="html=1;overflow=block;blockSpacing=1;whiteSpace=wrap;fontSize=13.3;fontColor=#3a414a;spacing=3.8;strokeOpacity=0;fillOpacity=0;rounded=1;absoluteArcSize=1;arcSize=9;fillColor=#ffffff;strokeWidth=0.8;lucidId=AmVKsL5lhoZ2;" vertex="1" parent="1">
          <mxGeometry x="200" y="707" width="75" height="14" as="geometry" />
        </mxCell>
        <mxCell id="QaZdnvuTD9Rjo6igAOZW-302" value="" style="html=1;jettySize=18;whiteSpace=wrap;fontSize=13;strokeColor=#3a414a;strokeOpacity=100;strokeWidth=0.8;rounded=1;arcSize=12;edgeStyle=orthogonalEdgeStyle;startArrow=none;endArrow=none;exitX=0.313;exitY=-0.006;exitPerimeter=0;entryX=0.5;entryY=1.028;entryPerimeter=0;lucidId=coVKm8W3ZiYt;" edge="1" parent="1" target="QaZdnvuTD9Rjo6igAOZW-303">
          <mxGeometry width="100" height="100" relative="1" as="geometry">
            <Array as="points" />
            <mxPoint x="303" y="750" as="sourcePoint" />
          </mxGeometry>
        </mxCell>
        <mxCell id="QaZdnvuTD9Rjo6igAOZW-303" value="      " style="html=1;overflow=block;blockSpacing=1;whiteSpace=wrap;ellipse;fontSize=16.7;fontColor=#3a414a;spacing=3.8;strokeColor=#3a414a;strokeOpacity=100;fillOpacity=100;rounded=1;absoluteArcSize=1;arcSize=9;fillColor=#ffffff;strokeWidth=0.8;lucidId=coVKWn.t1rwF;" vertex="1" parent="1">
          <mxGeometry x="295" y="689" width="15" height="14" as="geometry" />
        </mxCell>
        <mxCell id="QaZdnvuTD9Rjo6igAOZW-304" value="AC_TTAF" style="html=1;overflow=block;blockSpacing=1;whiteSpace=wrap;fontSize=13.3;fontColor=#3a414a;spacing=3.8;strokeOpacity=0;fillOpacity=0;rounded=1;absoluteArcSize=1;arcSize=9;fillColor=#ffffff;strokeWidth=0.8;lucidId=coVKMRL6UHah;" vertex="1" parent="1">
          <mxGeometry x="220" y="687" width="75" height="14" as="geometry" />
        </mxCell>
        <mxCell id="QaZdnvuTD9Rjo6igAOZW-305" value="" style="html=1;jettySize=18;whiteSpace=wrap;fontSize=13;strokeColor=#3a414a;strokeOpacity=100;strokeWidth=0.8;rounded=1;arcSize=12;edgeStyle=orthogonalEdgeStyle;startArrow=none;endArrow=none;exitX=0.438;exitY=-0.006;exitPerimeter=0;entryX=0.5;entryY=1.028;entryPerimeter=0;lucidId=roVKiwSeDaVq;" edge="1" parent="1" target="QaZdnvuTD9Rjo6igAOZW-306">
          <mxGeometry width="100" height="100" relative="1" as="geometry">
            <Array as="points">
              <mxPoint x="319" y="750" />
              <mxPoint x="319" y="717" />
              <mxPoint x="318" y="717" />
            </Array>
            <mxPoint x="318" y="750" as="sourcePoint" />
          </mxGeometry>
        </mxCell>
        <mxCell id="QaZdnvuTD9Rjo6igAOZW-306" value="      " style="html=1;overflow=block;blockSpacing=1;whiteSpace=wrap;ellipse;fontSize=16.7;fontColor=#3a414a;spacing=3.8;strokeColor=#3a414a;strokeOpacity=100;fillOpacity=100;rounded=1;absoluteArcSize=1;arcSize=9;fillColor=#ffffff;strokeWidth=0.8;lucidId=roVKkqk5c~9W;" vertex="1" parent="1">
          <mxGeometry x="310" y="669" width="15" height="14" as="geometry" />
        </mxCell>
        <mxCell id="QaZdnvuTD9Rjo6igAOZW-307" value="AC_TTEL" style="html=1;overflow=block;blockSpacing=1;whiteSpace=wrap;fontSize=13.3;fontColor=#3a414a;spacing=3.8;strokeOpacity=0;fillOpacity=0;rounded=1;absoluteArcSize=1;arcSize=9;fillColor=#ffffff;strokeWidth=0.8;lucidId=roVKPrWsnN.-;" vertex="1" parent="1">
          <mxGeometry x="235" y="665.5" width="75" height="14" as="geometry" />
        </mxCell>
        <mxCell id="QaZdnvuTD9Rjo6igAOZW-308" value="" style="html=1;jettySize=18;whiteSpace=wrap;fontSize=13;strokeColor=#3a414a;strokeOpacity=100;strokeWidth=0.8;rounded=1;arcSize=12;edgeStyle=orthogonalEdgeStyle;startArrow=none;endArrow=none;exitX=0.562;exitY=-0.006;exitPerimeter=0;entryX=0.5;entryY=1.028;entryPerimeter=0;lucidId=FoVK4zzBq5yE;" edge="1" parent="1" target="QaZdnvuTD9Rjo6igAOZW-309">
          <mxGeometry width="100" height="100" relative="1" as="geometry">
            <Array as="points" />
            <mxPoint x="332" y="750" as="sourcePoint" />
          </mxGeometry>
        </mxCell>
        <mxCell id="QaZdnvuTD9Rjo6igAOZW-309" value="      " style="html=1;overflow=block;blockSpacing=1;whiteSpace=wrap;ellipse;fontSize=16.7;fontColor=#3a414a;spacing=3.8;strokeColor=#3a414a;strokeOpacity=100;fillOpacity=100;rounded=1;absoluteArcSize=1;arcSize=9;fillColor=#ffffff;strokeWidth=0.8;lucidId=FoVKDVVoTG5t;" vertex="1" parent="1">
          <mxGeometry x="325" y="650" width="15" height="14" as="geometry" />
        </mxCell>
        <mxCell id="QaZdnvuTD9Rjo6igAOZW-310" value="AC_TTER" style="html=1;overflow=block;blockSpacing=1;whiteSpace=wrap;fontSize=13.3;fontColor=#3a414a;spacing=3.8;strokeOpacity=0;fillOpacity=0;rounded=1;absoluteArcSize=1;arcSize=9;fillColor=#ffffff;strokeWidth=0.8;lucidId=FoVKqou4in6y;" vertex="1" parent="1">
          <mxGeometry x="250" y="646" width="75" height="14" as="geometry" />
        </mxCell>
        <mxCell id="QaZdnvuTD9Rjo6igAOZW-312" value="" style="html=1;jettySize=18;whiteSpace=wrap;fontSize=13;strokeColor=#3a414a;strokeOpacity=100;strokeWidth=0.8;rounded=1;arcSize=12;edgeStyle=orthogonalEdgeStyle;startArrow=none;endArrow=none;exitX=0.433;exitY=0.007;exitPerimeter=0;entryX=0.5;entryY=1;lucidId=AmVKfJqPIGCh;entryDx=0;entryDy=0;exitDx=0;exitDy=0;" edge="1" parent="1" source="QaZdnvuTD9Rjo6igAOZW-265" target="QaZdnvuTD9Rjo6igAOZW-297">
          <mxGeometry width="100" height="100" relative="1" as="geometry">
            <Array as="points" />
            <mxPoint x="298" y="760" as="sourcePoint" />
            <mxPoint x="298" y="734" as="targetPoint" />
          </mxGeometry>
        </mxCell>
        <mxCell id="QaZdnvuTD9Rjo6igAOZW-315" value="" style="endArrow=none;html=1;rounded=0;entryX=0.872;entryY=0.633;entryDx=0;entryDy=0;entryPerimeter=0;exitX=0;exitY=0;exitDx=0;exitDy=0;" edge="1" parent="1" source="QaZdnvuTD9Rjo6igAOZW-131" target="QaZdnvuTD9Rjo6igAOZW-154">
          <mxGeometry width="50" height="50" relative="1" as="geometry">
            <mxPoint x="710" y="560" as="sourcePoint" />
            <mxPoint x="600" y="630" as="targetPoint" />
          </mxGeometry>
        </mxCell>
        <mxCell id="QaZdnvuTD9Rjo6igAOZW-317" value="" style="html=1;jettySize=18;whiteSpace=wrap;fontSize=13;strokeColor=#3a414a;strokeOpacity=100;strokeWidth=0.8;rounded=1;arcSize=12;edgeStyle=orthogonalEdgeStyle;startArrow=none;endArrow=none;lucidId=0sVKfE.GodQv;exitX=0;exitY=0.5;exitDx=0;exitDy=0;entryX=1;entryY=0.5;entryDx=0;entryDy=0;" edge="1" parent="1" source="QaZdnvuTD9Rjo6igAOZW-263" target="QaZdnvuTD9Rjo6igAOZW-265">
          <mxGeometry width="100" height="100" relative="1" as="geometry">
            <Array as="points" />
            <mxPoint x="430" y="780" as="sourcePoint" />
            <mxPoint x="340" y="780" as="targetPoint" />
          </mxGeometry>
        </mxCell>
        <mxCell id="QaZdnvuTD9Rjo6igAOZW-316" value=" 1,N" style="html=1;overflow=block;blockSpacing=1;whiteSpace=wrap;fontSize=16.7;fontColor=#3a414a;spacing=3.8;strokeOpacity=0;fillOpacity=0;rounded=1;absoluteArcSize=1;arcSize=9;fillColor=#ffffff;strokeWidth=0.8;lucidId=YCUK2FKrBslO;" vertex="1" parent="1">
          <mxGeometry x="311" y="742" width="105" height="45" as="geometry" />
        </mxCell>
        <mxCell id="QaZdnvuTD9Rjo6igAOZW-318" value=" 1,1" style="html=1;overflow=block;blockSpacing=1;whiteSpace=wrap;fontSize=16.7;fontColor=#3a414a;spacing=3.8;strokeOpacity=0;fillOpacity=0;rounded=1;absoluteArcSize=1;arcSize=9;fillColor=#ffffff;strokeWidth=0.8;lucidId=YCUK2FKrBslO;" vertex="1" parent="1">
          <mxGeometry x="572" y="742" width="105" height="45" as="geometry" />
        </mxCell>
        <mxCell id="QaZdnvuTD9Rjo6igAOZW-319" value=" 1,N" style="html=1;overflow=block;blockSpacing=1;whiteSpace=wrap;fontSize=16.7;fontColor=#3a414a;spacing=3.8;strokeOpacity=0;fillOpacity=0;rounded=1;absoluteArcSize=1;arcSize=9;fillColor=#ffffff;strokeWidth=0.8;lucidId=YCUK2FKrBslO;" vertex="1" parent="1">
          <mxGeometry x="540" y="880" width="105" height="45" as="geometry" />
        </mxCell>
        <mxCell id="QaZdnvuTD9Rjo6igAOZW-320" value=" 1,N" style="html=1;overflow=block;blockSpacing=1;whiteSpace=wrap;fontSize=16.7;fontColor=#3a414a;spacing=3.8;strokeOpacity=0;fillOpacity=0;rounded=1;absoluteArcSize=1;arcSize=9;fillColor=#ffffff;strokeWidth=0.8;lucidId=.PUKQzckTx9x;rotation=90;" vertex="1" parent="1">
          <mxGeometry x="682" y="814" width="105" height="45" as="geometry" />
        </mxCell>
        <mxCell id="QaZdnvuTD9Rjo6igAOZW-321" value="" style="html=1;jettySize=18;whiteSpace=wrap;fontSize=13;strokeColor=#3a414a;strokeOpacity=100;strokeWidth=0.8;rounded=1;arcSize=12;edgeStyle=orthogonalEdgeStyle;startArrow=none;endArrow=none;exitX=0.188;exitY=-0.006;exitPerimeter=0;entryX=0.5;entryY=1.028;entryPerimeter=0;lucidId=AmVKfJqPIGCh;" edge="1" parent="1">
          <mxGeometry width="100" height="100" relative="1" as="geometry">
            <Array as="points" />
            <mxPoint x="462.5" y="955" as="sourcePoint" />
            <mxPoint x="462.5" y="981" as="targetPoint" />
          </mxGeometry>
        </mxCell>
        <mxCell id="QaZdnvuTD9Rjo6igAOZW-322" value="" style="html=1;jettySize=18;whiteSpace=wrap;fontSize=13;strokeColor=#3a414a;strokeOpacity=100;strokeWidth=0.8;rounded=1;arcSize=12;edgeStyle=orthogonalEdgeStyle;startArrow=none;endArrow=none;exitX=0.313;exitY=-0.006;exitPerimeter=0;entryX=0.5;entryY=1.028;entryPerimeter=0;lucidId=coVKm8W3ZiYt;" edge="1" parent="1">
          <mxGeometry width="100" height="100" relative="1" as="geometry">
            <Array as="points" />
            <mxPoint x="482.5" y="1002" as="sourcePoint" />
            <mxPoint x="482.5" y="955" as="targetPoint" />
          </mxGeometry>
        </mxCell>
        <mxCell id="QaZdnvuTD9Rjo6igAOZW-323" value="" style="html=1;jettySize=18;whiteSpace=wrap;fontSize=13;strokeColor=#3a414a;strokeOpacity=100;strokeWidth=0.8;rounded=1;arcSize=12;edgeStyle=orthogonalEdgeStyle;startArrow=none;endArrow=none;exitX=0.438;exitY=-0.006;exitPerimeter=0;entryX=0.5;entryY=1.028;entryPerimeter=0;lucidId=roVKiwSeDaVq;" edge="1" parent="1">
          <mxGeometry width="100" height="100" relative="1" as="geometry">
            <Array as="points" />
            <mxPoint x="502.5" y="1022" as="sourcePoint" />
            <mxPoint x="502.5" y="955" as="targetPoint" />
          </mxGeometry>
        </mxCell>
        <mxCell id="QaZdnvuTD9Rjo6igAOZW-324" value="" style="html=1;jettySize=18;whiteSpace=wrap;fontSize=13;strokeColor=#3a414a;strokeOpacity=100;strokeWidth=0.8;rounded=1;arcSize=12;edgeStyle=orthogonalEdgeStyle;startArrow=none;endArrow=none;exitX=0.688;exitY=-0.006;exitPerimeter=0;entryX=0.5;entryY=1.028;entryPerimeter=0;lucidId=OoVKWEEKpmHh;" edge="1" parent="1">
          <mxGeometry width="100" height="100" relative="1" as="geometry">
            <Array as="points" />
            <mxPoint x="534.71" y="1057" as="sourcePoint" />
            <mxPoint x="534.71" y="955" as="targetPoint" />
          </mxGeometry>
        </mxCell>
        <mxCell id="QaZdnvuTD9Rjo6igAOZW-325" value="" style="html=1;jettySize=18;whiteSpace=wrap;fontSize=13;strokeColor=#3a414a;strokeOpacity=100;strokeWidth=0.8;rounded=1;arcSize=12;edgeStyle=orthogonalEdgeStyle;startArrow=none;endArrow=none;entryX=0.5;entryY=1.028;entryPerimeter=0;lucidId=OoVKWEEKpmHh;" edge="1" parent="1">
          <mxGeometry width="100" height="100" relative="1" as="geometry">
            <Array as="points" />
            <mxPoint x="522.5" y="1040" as="sourcePoint" />
            <mxPoint x="522.5" y="955" as="targetPoint" />
          </mxGeometry>
        </mxCell>
        <mxCell id="QaZdnvuTD9Rjo6igAOZW-326" value="      " style="html=1;overflow=block;blockSpacing=1;whiteSpace=wrap;ellipse;fontSize=16.7;fontColor=#3a414a;spacing=3.8;strokeColor=#3a414a;strokeOpacity=100;fillOpacity=100;rounded=1;absoluteArcSize=1;arcSize=9;fillColor=#ffffff;strokeWidth=0.8;lucidId=coVKWn.t1rwF;" vertex="1" parent="1">
          <mxGeometry x="472.5" y="1000" width="15" height="14" as="geometry" />
        </mxCell>
        <mxCell id="QaZdnvuTD9Rjo6igAOZW-327" value="      " style="html=1;overflow=block;blockSpacing=1;whiteSpace=wrap;ellipse;fontSize=16.7;fontColor=#3a414a;spacing=3.8;strokeColor=#3a414a;strokeOpacity=100;fillOpacity=100;rounded=1;absoluteArcSize=1;arcSize=9;fillColor=#ffffff;strokeWidth=0.8;lucidId=coVKWn.t1rwF;" vertex="1" parent="1">
          <mxGeometry x="492.5" y="1019.5" width="15" height="14" as="geometry" />
        </mxCell>
        <mxCell id="QaZdnvuTD9Rjo6igAOZW-328" value="      " style="html=1;overflow=block;blockSpacing=1;whiteSpace=wrap;ellipse;fontSize=16.7;fontColor=#3a414a;spacing=3.8;strokeColor=#3a414a;strokeOpacity=100;fillOpacity=100;rounded=1;absoluteArcSize=1;arcSize=9;fillColor=#ffffff;strokeWidth=0.8;lucidId=coVKWn.t1rwF;" vertex="1" parent="1">
          <mxGeometry x="512.5" y="1038" width="15" height="14" as="geometry" />
        </mxCell>
        <mxCell id="QaZdnvuTD9Rjo6igAOZW-329" value="      " style="html=1;overflow=block;blockSpacing=1;whiteSpace=wrap;ellipse;fontSize=16.7;fontColor=#3a414a;spacing=3.8;strokeColor=#3a414a;strokeOpacity=100;fillOpacity=100;rounded=1;absoluteArcSize=1;arcSize=9;fillColor=#ffffff;strokeWidth=0.8;lucidId=coVKWn.t1rwF;" vertex="1" parent="1">
          <mxGeometry x="522.5" y="1058" width="15" height="14" as="geometry" />
        </mxCell>
        <mxCell id="QaZdnvuTD9Rjo6igAOZW-330" value="      " style="html=1;overflow=block;blockSpacing=1;whiteSpace=wrap;ellipse;fontSize=16.7;fontColor=#3a414a;spacing=3.8;strokeColor=#3a414a;strokeOpacity=100;fillOpacity=100;rounded=1;absoluteArcSize=1;arcSize=9;fillColor=#000000;strokeWidth=0.8;lucidId=coVKWn.t1rwF;" vertex="1" parent="1">
          <mxGeometry x="457.5" y="980" width="15" height="14" as="geometry" />
        </mxCell>
        <mxCell id="QaZdnvuTD9Rjo6igAOZW-331" value="CUS_CODE" style="html=1;overflow=block;blockSpacing=1;whiteSpace=wrap;fontSize=13.3;fontColor=#3a414a;spacing=3.8;strokeOpacity=0;fillOpacity=0;rounded=1;absoluteArcSize=1;arcSize=9;fillColor=#ffffff;strokeWidth=0.8;lucidId=ilVKILsEL.rR;" vertex="1" parent="1">
          <mxGeometry x="382.5" y="972" width="75" height="8" as="geometry" />
        </mxCell>
        <mxCell id="QaZdnvuTD9Rjo6igAOZW-332" value="CUS_LNAME" style="html=1;overflow=block;blockSpacing=1;whiteSpace=wrap;fontSize=13.3;fontColor=#3a414a;spacing=3.8;strokeOpacity=0;fillOpacity=0;rounded=1;absoluteArcSize=1;arcSize=9;fillColor=#ffffff;strokeWidth=0.8;lucidId=ilVKILsEL.rR;" vertex="1" parent="1">
          <mxGeometry x="382.5" y="996" width="75" height="8" as="geometry" />
        </mxCell>
        <mxCell id="QaZdnvuTD9Rjo6igAOZW-333" value="CUS_FNAME" style="html=1;overflow=block;blockSpacing=1;whiteSpace=wrap;fontSize=13.3;fontColor=#3a414a;spacing=3.8;strokeOpacity=0;fillOpacity=0;rounded=1;absoluteArcSize=1;arcSize=9;fillColor=#ffffff;strokeWidth=0.8;lucidId=ilVKILsEL.rR;" vertex="1" parent="1">
          <mxGeometry x="402.5" y="1014" width="75" height="8" as="geometry" />
        </mxCell>
        <mxCell id="QaZdnvuTD9Rjo6igAOZW-334" value="CUS_INITIAL" style="html=1;overflow=block;blockSpacing=1;whiteSpace=wrap;fontSize=13.3;fontColor=#3a414a;spacing=3.8;strokeOpacity=0;fillOpacity=0;rounded=1;absoluteArcSize=1;arcSize=9;fillColor=#ffffff;strokeWidth=0.8;lucidId=ilVKILsEL.rR;" vertex="1" parent="1">
          <mxGeometry x="412.5" y="1033.5" width="75" height="8" as="geometry" />
        </mxCell>
        <mxCell id="QaZdnvuTD9Rjo6igAOZW-335" value="CUS_AREACODE" style="html=1;overflow=block;blockSpacing=1;whiteSpace=wrap;fontSize=13.3;fontColor=#3a414a;spacing=3.8;strokeOpacity=0;fillOpacity=0;rounded=1;absoluteArcSize=1;arcSize=9;fillColor=#ffffff;strokeWidth=0.8;lucidId=ilVKILsEL.rR;" vertex="1" parent="1">
          <mxGeometry x="402.5" y="1058" width="75" height="8" as="geometry" />
        </mxCell>
        <mxCell id="QaZdnvuTD9Rjo6igAOZW-337" value="" style="html=1;jettySize=18;whiteSpace=wrap;fontSize=13;strokeColor=#3a414a;strokeOpacity=100;strokeWidth=0.8;rounded=1;arcSize=12;edgeStyle=orthogonalEdgeStyle;startArrow=none;endArrow=none;lucidId=OoVKWEEKpmHh;entryX=0.818;entryY=1.01;entryDx=0;entryDy=0;entryPerimeter=0;" edge="1" parent="1" target="QaZdnvuTD9Rjo6igAOZW-229">
          <mxGeometry width="100" height="100" relative="1" as="geometry">
            <Array as="points" />
            <mxPoint x="550" y="1080" as="sourcePoint" />
            <mxPoint x="550" y="960" as="targetPoint" />
          </mxGeometry>
        </mxCell>
        <mxCell id="QaZdnvuTD9Rjo6igAOZW-340" value="      " style="html=1;overflow=block;blockSpacing=1;whiteSpace=wrap;ellipse;fontSize=16.7;fontColor=#3a414a;spacing=3.8;strokeColor=#3a414a;strokeOpacity=100;fillOpacity=100;rounded=1;absoluteArcSize=1;arcSize=9;fillColor=#ffffff;strokeWidth=0.8;lucidId=coVKWn.t1rwF;" vertex="1" parent="1">
          <mxGeometry x="540" y="1080" width="15" height="12" as="geometry" />
        </mxCell>
        <mxCell id="QaZdnvuTD9Rjo6igAOZW-342" value="CUS_PHONE" style="html=1;overflow=block;blockSpacing=1;whiteSpace=wrap;fontSize=13.3;fontColor=#3a414a;spacing=3.8;strokeOpacity=0;fillOpacity=0;rounded=1;absoluteArcSize=1;arcSize=9;fillColor=#ffffff;strokeWidth=0.8;lucidId=ilVKILsEL.rR;" vertex="1" parent="1">
          <mxGeometry x="447.5" y="1080" width="75" height="8" as="geometry" />
        </mxCell>
      </root>
    </mxGraphModel>
  </diagram>
</mxfile>
